<svg width="126" height="40" viewBox="0 0 126 40" fill="none" xmlns="http://www.w3.org/2000/svg">
<g id="Logo">
<path d="M11 4.5C11 6.70914 12.7909 8.5 15 8.5C17.2091 8.5 19 6.70914 19 4.5C19 2.29086 17.2091 0.5 15 0.5C12.7909 0.5 11 2.29086 11 4.5Z" fill="#692A9F"/>
<path d="M20.7854 17.8954C22.0196 18.5602 22.9593 19.4742 23.6045 20.6375C24.2496 21.8009 24.5722 23.1581 24.5722 24.7092C24.5722 26.4265 24.1795 27.9499 23.3941 29.2794C22.6087 30.6089 21.4867 31.6476 20.028 32.3954C18.5694 33.1433 16.8864 33.5172 14.979 33.5172C13.0154 33.5172 11.3043 33.1433 9.84572 32.3954C8.3871 31.6199 7.26508 30.5535 6.47966 29.1963C5.69425 27.8391 5.30154 26.2603 5.30154 24.4599C5.30154 22.244 5.8906 20.4298 7.06872 19.0172C8.27489 17.6046 9.9439 16.6767 12.0757 16.2335V26.2049H16.5778L16.5778 10.5H11.4446C9.39691 10.8878 7.50351 11.7187 5.76438 12.9928C4.02524 14.267 2.62272 15.915 1.5568 17.937C0.518932 19.9312 2.97269e-08 22.1748 0 24.6676C-3.33599e-08 27.4651 0.631136 29.9995 1.89341 32.2708C3.18373 34.5143 4.96494 36.287 7.23703 37.5888C9.50912 38.8629 12.0898 39.5 14.979 39.5C17.8682 39.5 20.4488 38.8629 22.7209 37.5888C25.021 36.287 26.8022 34.5143 28.0645 32.2708C29.3548 29.9995 30 27.479 30 24.7092C30 21.4408 29.1865 18.6017 27.5596 16.192C25.9607 13.7822 23.7027 12.1203 20.7854 11.2063V17.8954Z" fill="#692A9F"/>
<path d="M55.652 16.336C55.204 15.5147 54.588 14.8893 53.804 14.46C53.02 14.0307 52.1053 13.816 51.06 13.816C49.9027 13.816 48.876 14.0773 47.98 14.6C47.084 15.1227 46.384 15.8693 45.88 16.84C45.376 17.8107 45.124 18.9307 45.124 20.2C45.124 21.5067 45.376 22.6453 45.88 23.616C46.4027 24.5867 47.1213 25.3333 48.036 25.856C48.9507 26.3787 50.0147 26.64 51.228 26.64C52.7213 26.64 53.944 26.248 54.896 25.464C55.848 24.6613 56.4733 23.5507 56.772 22.132H50.052V19.136H60.636V22.552C60.3747 23.9147 59.8147 25.1747 58.956 26.332C58.0973 27.4893 56.9867 28.4227 55.624 29.132C54.28 29.8227 52.768 30.168 51.088 30.168C49.2027 30.168 47.4947 29.748 45.964 28.908C44.452 28.0493 43.2573 26.864 42.38 25.352C41.5213 23.84 41.092 22.1227 41.092 20.2C41.092 18.2773 41.5213 16.56 42.38 15.048C43.2573 13.5173 44.452 12.332 45.964 11.492C47.4947 10.6333 49.1933 10.204 51.06 10.204C53.2627 10.204 55.176 10.7453 56.8 11.828C58.424 12.892 59.544 14.3947 60.16 16.336H55.652Z" fill="black"/>
<path d="M70.4242 30.252C68.9309 30.252 67.5869 29.9253 66.3922 29.272C65.1975 28.6 64.2549 27.6573 63.5642 26.444C62.8922 25.2307 62.5562 23.8307 62.5562 22.244C62.5562 20.6573 62.9015 19.2573 63.5922 18.044C64.3015 16.8307 65.2629 15.8973 66.4762 15.244C67.6895 14.572 69.0429 14.236 70.5362 14.236C72.0295 14.236 73.3829 14.572 74.5962 15.244C75.8095 15.8973 76.7615 16.8307 77.4522 18.044C78.1615 19.2573 78.5162 20.6573 78.5162 22.244C78.5162 23.8307 78.1522 25.2307 77.4242 26.444C76.7149 27.6573 75.7442 28.6 74.5122 29.272C73.2989 29.9253 71.9362 30.252 70.4242 30.252ZM70.4242 26.836C71.1335 26.836 71.7962 26.668 72.4122 26.332C73.0469 25.9773 73.5508 25.4547 73.9242 24.764C74.2975 24.0733 74.4842 23.2333 74.4842 22.244C74.4842 20.7693 74.0922 19.64 73.3082 18.856C72.5429 18.0533 71.6002 17.652 70.4802 17.652C69.3602 17.652 68.4175 18.0533 67.6522 18.856C66.9055 19.64 66.5322 20.7693 66.5322 22.244C66.5322 23.7187 66.8962 24.8573 67.6242 25.66C68.3708 26.444 69.3042 26.836 70.4242 26.836Z" fill="black"/>
<path d="M85.3117 26.892H91.7517V30H81.3917V10.456H85.3117V26.892Z" fill="black"/>
<path d="M96.2312 12.64C95.5406 12.64 94.9619 12.4253 94.4952 11.996C94.0472 11.548 93.8232 10.9973 93.8232 10.344C93.8232 9.69067 94.0472 9.14933 94.4952 8.72C94.9619 8.272 95.5406 8.048 96.2312 8.048C96.9219 8.048 97.4912 8.272 97.9392 8.72C98.4059 9.14933 98.6392 9.69067 98.6392 10.344C98.6392 10.9973 98.4059 11.548 97.9392 11.996C97.4912 12.4253 96.9219 12.64 96.2312 12.64ZM98.1632 14.488V30H94.2432V14.488H98.1632Z" fill="black"/>
<path d="M107.972 30.252C106.703 30.252 105.564 30.028 104.556 29.58C103.548 29.1133 102.746 28.488 102.148 27.704C101.57 26.92 101.252 26.052 101.196 25.1H105.144C105.219 25.6973 105.508 26.192 106.012 26.584C106.535 26.976 107.179 27.172 107.944 27.172C108.691 27.172 109.27 27.0227 109.68 26.724C110.11 26.4253 110.324 26.0427 110.324 25.576C110.324 25.072 110.063 24.6987 109.54 24.456C109.036 24.1947 108.224 23.9147 107.104 23.616C105.947 23.336 104.995 23.0467 104.248 22.748C103.52 22.4493 102.886 21.992 102.344 21.376C101.822 20.76 101.56 19.9293 101.56 18.884C101.56 18.0253 101.803 17.2413 102.288 16.532C102.792 15.8227 103.502 15.2627 104.416 14.852C105.35 14.4413 106.442 14.236 107.692 14.236C109.54 14.236 111.015 14.7027 112.116 15.636C113.218 16.5507 113.824 17.792 113.936 19.36H110.184C110.128 18.744 109.867 18.2587 109.4 17.904C108.952 17.5307 108.346 17.344 107.58 17.344C106.871 17.344 106.32 17.4747 105.928 17.736C105.555 17.9973 105.368 18.3613 105.368 18.828C105.368 19.3507 105.63 19.752 106.152 20.032C106.675 20.2933 107.487 20.564 108.588 20.844C109.708 21.124 110.632 21.4133 111.36 21.712C112.088 22.0107 112.714 22.4773 113.236 23.112C113.778 23.728 114.058 24.5493 114.076 25.576C114.076 26.472 113.824 27.2747 113.32 27.984C112.835 28.6933 112.126 29.2533 111.192 29.664C110.278 30.056 109.204 30.252 107.972 30.252Z" fill="black"/>
<path d="M121.858 17.708V25.212C121.858 25.7347 121.979 26.1173 122.222 26.36C122.483 26.584 122.913 26.696 123.51 26.696H125.33V30H122.866C119.562 30 117.91 28.3947 117.91 25.184V17.708H116.062V14.488H117.91V10.652H121.858V14.488H125.33V17.708H121.858Z" fill="black"/>
</g>
</svg>
